<svg id="Calque_1" xmlns="http://www.w3.org/2000/svg" viewBox="0 0 32.8 32.8"><style>.st0{fill:#fff}</style><circle class="st0" cx="16.5" cy="16.8" r="3.1"/><path class="st0" d="M16.5 12.1c-.1 0-.3-.1-.3-.3v-3c0-.1.1-.3.3-.3.1 0 .3.1.3.3v3.1c-.1.1-.2.2-.3.2zm-3.3 1.4c-.1.1-.3.1-.4 0l-2.2-2.2c-.1-.1-.1-.3 0-.4.1-.1.3-.1.4 0l2.2 2.2c.1.1.1.3 0 .4zm-1.4 3.3c0 .1-.1.3-.3.3h-3c-.1 0-.3-.1-.3-.3 0-.1.1-.3.3-.3h3.1c.1 0 .2.1.2.3zm1.4 3.3c.1.1.1.3 0 .4L11 22.6c-.1.1-.3.1-.4 0-.1-.1-.1-.3 0-.4l2.2-2.2c.1 0 .3 0 .4.1zm3.3 1.3c.1 0 .3.1.3.3v3.1c0 .1-.1.3-.3.3-.1 0-.3-.1-.3-.3v-3.1c0-.2.1-.3.3-.3zm3.3-1.3c.1-.1.3-.1.4 0l2.2 2.2c.1.1.1.3 0 .4-.1.1-.3.1-.4 0l-2.2-2.2c-.1-.2-.1-.3 0-.4zm1.3-3.3c0-.1.1-.3.3-.3h3.1c.1 0 .3.1.3.3 0 .1-.1.3-.3.3h-3.1c-.1-.1-.3-.2-.3-.3zm-1.3-3.3c-.1-.1-.1-.3 0-.4l2.2-2.2c.1-.1.3-.1.4 0 .1.1.1.3 0 .4l-2.2 2.2c-.2.1-.3.1-.4 0z"/></svg>