<?xml version="1.0" encoding="utf-8"?>
<!-- Generator: Adobe Illustrator 21.1.0, SVG Export Plug-In . SVG Version: 6.00 Build 0)  -->
<svg version="1.1" id="Calque_1" xmlns="http://www.w3.org/2000/svg" xmlns:xlink="http://www.w3.org/1999/xlink" x="0px" y="0px"
	 viewBox="0 0 32.8 32.8" style="enable-background:new 0 0 32.8 32.8;" xml:space="preserve">
<style type="text/css">
	.st0{fill:#FFFFFF;}
</style>
<g>
	<path class="st0" d="M18.5,19.1c-1.9,0-3.4-1.5-3.4-3.4c0-1.9,1.5-3.4,3.4-3.4c0.3,0,0.6,0,0.9,0.1c-0.8-0.6-1.8-0.9-2.9-0.9
		c-2.7,0-4.9,2.2-4.9,4.9s2.2,4.9,4.9,4.9c2.2,0,4.1-1.5,4.7-3.5C20.6,18.6,19.6,19.1,18.5,19.1z"/>
	<polygon class="st0" points="19.4,13.5 20,14.6 21.2,14.9 20.4,15.8 20.5,17 19.4,16.5 18.3,17 18.4,15.8 17.6,14.9 18.8,14.6 	"/>
</g>
</svg>
