<?xml version="1.0" encoding="utf-8"?>
<!-- Generator: Adobe Illustrator 21.1.0, SVG Export Plug-In . SVG Version: 6.00 Build 0)  -->
<svg version="1.1" id="Calque_1" xmlns="http://www.w3.org/2000/svg" xmlns:xlink="http://www.w3.org/1999/xlink" x="0px" y="0px"
	 viewBox="0 0 32.8 32.8" style="enable-background:new 0 0 32.8 32.8;" xml:space="preserve">
<style type="text/css">
	.st0{fill:#FFFFFF;stroke:#6A1B9A;stroke-width:0.3;stroke-miterlimit:10;}
</style>
<path class="st0" d="M21.5,16.8c-0.2-1.5-1.3-2.7-2.7-2.7c-1.4,0-2.6,1.2-2.7,2.7c-1.2,0-2.2,1-2.2,2.2s1,2.2,2.2,2.2h5.3
	c1.2,0,2.2-1,2.2-2.2C23.7,17.8,22.7,16.8,21.5,16.8z"/>
<path class="st0" d="M16.8,14.2c-0.2-1.5-1.3-2.7-2.7-2.7s-2.6,1.2-2.7,2.7c-1.2,0-2.2,1-2.2,2.2s1,2.2,2.2,2.2h5.3
	c1.2,0,2.2-1,2.2-2.2C19,15.3,18,14.3,16.8,14.2z"/>
</svg>
