<?xml version="1.0" encoding="utf-8"?>
<!-- Generator: Adobe Illustrator 21.1.0, SVG Export Plug-In . SVG Version: 6.00 Build 0)  -->
<svg version="1.1" id="Calque_1" xmlns="http://www.w3.org/2000/svg" xmlns:xlink="http://www.w3.org/1999/xlink" x="0px" y="0px"
	 viewBox="0 0 32.8 32.8" style="enable-background:new 0 0 32.8 32.8;" xml:space="preserve">
<style type="text/css">
	.st0{fill:#FFFFFF;stroke:#6A1B9A;stroke-width:0.1;stroke-miterlimit:10;}
</style>
<path class="st0" d="M19.2,14c-0.2-1.5-1.3-2.7-2.7-2.7c-1.4,0-2.6,1.2-2.7,2.7c-1.2,0-2.2,1-2.2,2.2s1,2.2,2.2,2.2h5.3
	c1.2,0,2.2-1,2.2-2.2S20.4,14,19.2,14z M18.6,20.7c0,0.5-0.3,0.8-0.7,0.8c-0.4,0-0.7-0.4-0.7-0.8c0-0.5,0.4-1.2,0.7-1.6
	C18.2,19.5,18.6,20.2,18.6,20.7z M15.6,20.7c0,0.5-0.3,0.8-0.7,0.8s-0.7-0.4-0.7-0.8c0-0.5,0.4-1.2,0.7-1.6
	C15.2,19.5,15.6,20.2,15.6,20.7z"/>
</svg>
