<?xml version="1.0" encoding="utf-8"?>
<!-- Generator: Adobe Illustrator 21.1.0, SVG Export Plug-In . SVG Version: 6.00 Build 0)  -->
<svg version="1.1" id="Calque_1" xmlns="http://www.w3.org/2000/svg" xmlns:xlink="http://www.w3.org/1999/xlink" x="0px" y="0px"
	 viewBox="0 0 32.8 32.8" style="enable-background:new 0 0 32.8 32.8;" xml:space="preserve">
<style type="text/css">
	.st0{fill:#FFFFFF;}
	.st1{fill:#FFFFFF;stroke:#6A1B9A;stroke-width:0.3;stroke-miterlimit:10;}
	.st2{fill:#FFFFFF;stroke:#6A1B9A;stroke-width:0.1;stroke-miterlimit:10;}
</style>
<circle class="st0" cx="14.4" cy="16" r="1.5"/>
<path class="st0" d="M14.4,13.7c0,0-0.1,0-0.1-0.1v-1.5c0,0,0-0.1,0.1-0.1c0,0,0.1,0,0.1,0.1v1.5C14.5,13.7,14.4,13.7,14.4,13.7z
	 M12.7,14.4h-0.2l-1.1-1.1v-0.2h0.2l1.1,1.1C12.8,14.3,12.8,14.4,12.7,14.4z M12.1,16c0,0,0,0.1-0.1,0.1h-1.5c0,0-0.1,0-0.1-0.1
	c0,0,0-0.1,0.1-0.1H12C12,15.9,12.1,15.9,12.1,16z M12.7,17.7v0.2l-1.1,1h-0.2v-0.2l1.1-1.1C12.6,17.6,12.7,17.6,12.7,17.7z
	 M14.4,18.3c0,0,0.1,0,0.1,0.1V20c0,0,0,0.1-0.1,0.1c0,0-0.1,0-0.1-0.1v-1.5C14.2,18.4,14.3,18.3,14.4,18.3z M16,17.7h0.2l1.1,1.1
	V19h-0.2L16,17.9C15.9,17.8,15.9,17.7,16,17.7z M16.6,16c0,0,0-0.1,0.1-0.1h1.5c0,0,0.1,0,0.1,0.1c0,0,0,0.1-0.1,0.1h-1.5
	C16.7,16.1,16.6,16.1,16.6,16z M16,14.4v-0.2l1.1-1.1h0.2v0.2l-1.1,1.1C16.1,14.5,16,14.5,16,14.4z"/>
<path class="st1" d="M20.4,16.4c-0.2-1.5-1.3-2.7-2.7-2.7c-1.4,0-2.6,1.2-2.7,2.7c-1.2,0-2.2,1-2.2,2.2s1,2.2,2.2,2.2h5.3
	c1.2,0,2.2-1,2.2-2.2C22.6,17.4,21.6,16.5,20.4,16.4z"/>
<path class="st2" d="M19.7,23.2c0,0.5-0.3,0.8-0.7,0.8c-0.4,0-0.7-0.4-0.7-0.8c0-0.5,0.4-1.2,0.7-1.6C19.3,22,19.7,22.7,19.7,23.2z"
	/>
</svg>
