<?xml version="1.0" encoding="utf-8"?>
<!-- Generator: Adobe Illustrator 21.1.0, SVG Export Plug-In . SVG Version: 6.00 Build 0)  -->
<svg version="1.1" id="Calque_1" xmlns="http://www.w3.org/2000/svg" xmlns:xlink="http://www.w3.org/1999/xlink" x="0px" y="0px"
	 viewBox="0 0 32.8 32.8" style="enable-background:new 0 0 32.8 32.8;" xml:space="preserve">
<style type="text/css">
	.st0{fill:#FFFFFF;}
	.st1{fill:#FFFFFF;stroke:#6A1B9A;stroke-width:0.3;stroke-miterlimit:10;}
	.st2{fill:#FFFFFF;stroke:#6A1B9A;stroke-width:0.1;stroke-miterlimit:10;}
</style>
<g>
	<path class="st0" d="M20.4,16.3c-1.1,0-1.9-0.9-1.9-1.9c0-1.1,0.9-1.9,1.9-1.9c0.2,0,0.3,0,0.5,0.1c-0.5-0.3-1-0.5-1.6-0.5
		c-1.5,0-2.8,1.3-2.8,2.8s1.3,2.8,2.8,2.8c1.3,0,2.3-0.9,2.7-2C21.5,16,21,16.3,20.4,16.3z"/>
	<path class="st1" d="M18.4,16.4c-0.2-1.5-1.3-2.7-2.7-2.7c-1.4,0-2.6,1.2-2.7,2.7c-1.2,0-2.2,1-2.2,2.2s1,2.2,2.2,2.2h5.3
		c1.2,0,2.2-1,2.2-2.2C20.6,17.4,19.6,16.5,18.4,16.4z"/>
	<path class="st2" d="M15.3,23.3c0,0.5-0.3,0.8-0.7,0.8c-0.4,0-0.7-0.4-0.7-0.8c0-0.5,0.4-1.2,0.7-1.6
		C14.9,22.1,15.3,22.8,15.3,23.3z"/>
</g>
</svg>
