<?xml version="1.0" encoding="utf-8"?>
<!-- Generator: Adobe Illustrator 21.1.0, SVG Export Plug-In . SVG Version: 6.00 Build 0)  -->
<svg version="1.1" id="Calque_1" xmlns="http://www.w3.org/2000/svg" xmlns:xlink="http://www.w3.org/1999/xlink" x="0px" y="0px"
	 viewBox="0 0 32.8 32.8" style="enable-background:new 0 0 32.8 32.8;" xml:space="preserve">
<style type="text/css">
	.st0{fill:#FFFFFF;stroke:#6A1B9A;stroke-width:0.1;stroke-miterlimit:10;}
</style>
<path class="st0" d="M19.2,15.5c-0.2-1.5-1.3-2.7-2.7-2.7c-1.4,0-2.6,1.2-2.7,2.7c-1.2,0-2.2,1-2.2,2.2s1,2.2,2.2,2.2h5.3
	c1.2,0,2.2-1,2.2-2.2S20.4,15.5,19.2,15.5z"/>
<path class="st0" d="M21.6,15.2h-9.2c-0.1,0-0.2-0.1-0.2-0.2s0.1-0.2,0.2-0.2h9.2c0.1,0,0.2,0.1,0.2,0.2
	C21.9,15.1,21.7,15.2,21.6,15.2z M18.6,16.2H9.4c-0.1,0-0.2-0.1-0.2-0.2s0.1-0.2,0.2-0.2h9.2c0.1,0,0.2,0.1,0.2,0.2
	C18.8,16.1,18.7,16.2,18.6,16.2z M22.6,17.2h-9.2c-0.1,0-0.2-0.1-0.2-0.2s0.1-0.2,0.2-0.2h9.2c0.1,0,0.2,0.1,0.2,0.2
	S22.7,17.2,22.6,17.2z M18.6,18.2H9.4c-0.1,0-0.2-0.1-0.2-0.2s0.1-0.2,0.2-0.2h9.2c0.1,0,0.2,0.1,0.2,0.2S18.7,18.2,18.6,18.2z
	 M23.6,19.2h-9.2c-0.1,0-0.2-0.1-0.2-0.2s0.1-0.2,0.2-0.2h9.2c0.1,0,0.2,0.1,0.2,0.2S23.7,19.2,23.6,19.2z"/>
</svg>
