<?xml version="1.0" encoding="utf-8"?>
<!-- Generator: Adobe Illustrator 21.1.0, SVG Export Plug-In . SVG Version: 6.00 Build 0)  -->
<svg version="1.1" id="Calque_1" xmlns="http://www.w3.org/2000/svg" xmlns:xlink="http://www.w3.org/1999/xlink" x="0px" y="0px"
	 viewBox="0 0 32.8 32.8" style="enable-background:new 0 0 32.8 32.8;" xml:space="preserve">
<style type="text/css">
	.st0{fill:#FFFFFF;stroke:#6A1B9A;stroke-width:0.25;stroke-miterlimit:10;}
	.st1{fill:#FFFFFF;stroke:#6A1B9A;stroke-width:0.3;stroke-miterlimit:10;}
</style>
<g>
	<path class="st0" d="M20.9,16.7c-1.3,0-2.3-1-2.3-2.3c0-1.3,1-2.3,2.3-2.3c0.2,0,0.4,0,0.6,0.1c-0.5-0.4-1.2-0.6-1.9-0.6
		c-1.8,0-3.3,1.5-3.3,3.3s1.5,3.3,3.3,3.3c1.5,0,2.7-1,3.1-2.4C22.3,16.3,21.6,16.7,20.9,16.7z"/>
	<path class="st1" d="M17.7,16.8c-0.2-1.5-1.3-2.7-2.7-2.7s-2.6,1.2-2.7,2.7c-1.2,0-2.2,1-2.2,2.2s1,2.2,2.2,2.2h5.3
		c1.2,0,2.2-1,2.2-2.2C19.9,17.8,18.9,16.9,17.7,16.8z"/>
</g>
</svg>
