<?xml version="1.0" encoding="utf-8"?>
<!-- Generator: Adobe Illustrator 21.1.0, SVG Export Plug-In . SVG Version: 6.00 Build 0)  -->
<svg version="1.1" id="Calque_1" xmlns="http://www.w3.org/2000/svg" xmlns:xlink="http://www.w3.org/1999/xlink" x="0px" y="0px"
	 viewBox="0 0 32.8 32.8" style="enable-background:new 0 0 32.8 32.8;" xml:space="preserve">
<style type="text/css">
	.st0{fill:#FFFFFF;}
	.st1{fill:#9C27B0;}
</style>
<circle class="st0" cx="16.4" cy="16.4" r="16.2"/>
<g>
	<g>
		<path class="st1" d="M22.9,17.8H8c-0.2,0-0.4-0.2-0.4-0.4l0,0C7.6,17.2,7.8,17,8,17h14.9c0.2,0,0.4,0.2,0.4,0.4l0,0
			C23.4,17.6,23.2,17.8,22.9,17.8z"/>
		<g>
			<path class="st1" d="M18.1,19.6h-11c-0.2,0-0.4-0.2-0.4-0.4l0,0c0-0.2,0.2-0.4,0.4-0.4h11c0.2,0,0.4,0.2,0.4,0.4l0,0
				C18.5,19.4,18.3,19.6,18.1,19.6z"/>
			<g>
				<path class="st1" d="M18,18.7c1.3,0,2.3,1.1,2.3,2.3c0,1.3-1.1,2.3-2.3,2.3v-0.9c0.8,0,1.4-0.6,1.4-1.4s-0.6-1.4-1.4-1.4V18.7z"
					/>
			</g>
			<path class="st1" d="M18,22.4L18,22.4c0.2,0,0.4,0.2,0.4,0.5l0,0c0,0.2-0.2,0.4-0.4,0.4l0,0c-0.2,0-0.4-0.2-0.4-0.4l0,0
				C17.6,22.6,17.8,22.4,18,22.4z"/>
		</g>
		<g>
			<path class="st1" d="M18.1,15h-11c-0.2,0-0.4,0.2-0.4,0.5l0,0c0,0.2,0.2,0.5,0.4,0.5h11c0.2,0,0.4-0.2,0.4-0.5l0,0
				C18.5,15.2,18.3,15,18.1,15z"/>
			<g>
				<path class="st1" d="M18.1,15c0.8,0,1.4-0.6,1.4-1.4s-0.6-1.4-1.4-1.4v-0.9c1.3,0,2.3,1.1,2.3,2.3c0,1.3-1.1,2.3-2.3,2.3V15z"/>
			</g>
			<path class="st1" d="M18.1,12.2L18.1,12.2c0.2,0,0.4-0.2,0.4-0.4l0,0c0-0.2-0.2-0.4-0.4-0.4l0,0c-0.2,0-0.4,0.2-0.4,0.4l0,0
				C17.7,12,17.9,12.2,18.1,12.2z"/>
		</g>
	</g>
	<g>
		<path class="st1" d="M7.1,19.6c-1.3,0-2.3-1.1-2.3-2.3C4.8,16,5.9,15,7.1,15v0.9c-0.8,0-1.4,0.6-1.4,1.4s0.6,1.4,1.4,1.4
			C7.1,18.7,7.1,19.6,7.1,19.6z"/>
	</g>
	<g>
		<path class="st1" d="M22.8,17c0.8,0,1.5-0.6,1.5-1.2c0-0.7-0.6-1.2-1.4-1.2v-0.8c1.3,0,2.3,0.9,2.3,2.1s-1.1,2.1-2.3,2.1L22.8,17z
			"/>
	</g>
	<path class="st1" d="M22.9,14.5L22.9,14.5c0.2,0,0.4-0.2,0.4-0.4l0,0c0-0.2-0.2-0.4-0.4-0.4l0,0c-0.2,0-0.4,0.2-0.4,0.4l0,0
		C22.5,14.3,22.7,14.5,22.9,14.5z"/>
</g>
</svg>
