<svg id="Calque_1" xmlns="http://www.w3.org/2000/svg" viewBox="0 0 32.8 32.8"><style>.st0,.st1{fill:#fff}.st1{stroke:#6a1b9a;stroke-width:.3;stroke-miterlimit:10}</style><circle class="st0" cx="14.4" cy="16" r="1.5"/><path class="st0" d="M14.4 13.7s-.1 0-.1-.1v-1.5s0-.1.1-.1c0 0 .1 0 .1.1v1.5c0 .1-.1.1-.1.1zm-1.7.7h-.2l-1.1-1.1v-.2h.2l1.1 1.1c.1.1.1.2 0 .2zm-.6 1.6s0 .1-.1.1h-1.5s-.1 0-.1-.1c0 0 0-.1.1-.1H12s.1 0 .1.1zm.6 1.7v.2l-1.1 1h-.2v-.2l1.1-1.1c.1 0 .2 0 .2.1zm1.7.6s.1 0 .1.1V20s0 .1-.1.1c0 0-.1 0-.1-.1v-1.5c-.1-.1 0-.2.1-.2zm1.6-.6h.2l1.1 1.1v.2h-.2L16 17.9c-.1-.1-.1-.2 0-.2zm.6-1.7s0-.1.1-.1h1.5s.1 0 .1.1c0 0 0 .1-.1.1h-1.5s-.1 0-.1-.1zm-.6-1.6v-.2l1.1-1.1h.2v.2l-1.1 1.1c-.1.1-.2.1-.2 0z"/><path class="st1" d="M20.4 16.4c-.2-1.5-1.3-2.7-2.7-2.7-1.4 0-2.6 1.2-2.7 2.7-1.2 0-2.2 1-2.2 2.2s1 2.2 2.2 2.2h5.3c1.2 0 2.2-1 2.2-2.2.1-1.2-.9-2.1-2.1-2.2z"/></svg>