<svg id="Calque_1" xmlns="http://www.w3.org/2000/svg" viewBox="0 0 32.8 32.8"><style>.st0,.st1{fill:#fff}.st1{stroke:#6a1b9a;stroke-width:.3;stroke-miterlimit:10}</style><path class="st0" d="M20.7 16.6c-1.1 0-1.9-.9-1.9-1.9 0-1.1.9-1.9 1.9-1.9.2 0 .3 0 .5.1-.5-.3-1-.5-1.6-.5-1.5 0-2.8 1.3-2.8 2.8s1.3 2.8 2.8 2.8c1.3 0 2.3-.9 2.7-2-.5.3-1 .6-1.6.6z"/><path class="st1" d="M18.2 16.4c-.2-1.5-1.3-2.7-2.7-2.7s-2.6 1.2-2.7 2.7c-1.2 0-2.2 1-2.2 2.2s1 2.2 2.2 2.2h5.3c1.2 0 2.2-1 2.2-2.2.1-1.2-.9-2.1-2.1-2.2z"/></svg>