<svg id="Calque_1" xmlns="http://www.w3.org/2000/svg" viewBox="0 0 32.8 32.8"><style>.st0{fill:#fff}.st1,.st2{fill:#fff;stroke:#6a1b9a;stroke-width:.3;stroke-miterlimit:10}.st2{stroke-width:.1}</style><path class="st0" d="M20.4 16.3c-1.1 0-1.9-.9-1.9-1.9 0-1.1.9-1.9 1.9-1.9.2 0 .3 0 .5.1-.5-.3-1-.5-1.6-.5-1.5 0-2.8 1.3-2.8 2.8s1.3 2.8 2.8 2.8c1.3 0 2.3-.9 2.7-2-.5.3-1 .6-1.6.6z"/><path class="st1" d="M18.4 16.4c-.2-1.5-1.3-2.7-2.7-2.7-1.4 0-2.6 1.2-2.7 2.7-1.2 0-2.2 1-2.2 2.2s1 2.2 2.2 2.2h5.3c1.2 0 2.2-1 2.2-2.2.1-1.2-.9-2.1-2.1-2.2z"/><path class="st2" d="M15.3 23.3c0 .5-.3.8-.7.8-.4 0-.7-.4-.7-.8 0-.5.4-1.2.7-1.6.3.4.7 1.1.7 1.6z"/></svg>