<svg id="Calque_1" xmlns="http://www.w3.org/2000/svg" viewBox="0 0 32.8 32.8"><style>.st0{fill:#fff}</style><path class="st0" d="M16.4 16.4c-.4 0-.6-.3-.6-.6v-5.7c0-.4.3-.6.6-.6.4 0 .6.3.6.6v5.7c0 .3-.3.6-.6.6z"/><path class="st0" d="M15.9 12.8l-1.7-1.7c-.2-.2-.2-.5 0-.7.2-.2.5-.2.7 0l1.7 1.7c.2.2.2.5 0 .7-.2.2-.5.2-.7 0z"/><path class="st0" d="M16.9 12.8l1.7-1.7c.2-.2.2-.5 0-.7-.2-.2-.5-.2-.7 0l-1.7 1.7c-.2.2-.2.5 0 .7.1.2.5.2.7 0zm-.5 3.6c-.2.2-.4.2-.6 0l-2.7-2.7c-.2-.2-.2-.4 0-.6.2-.2.4-.2.6 0l2.7 2.7c.1.2.1.5 0 .6z"/><path class="st0" d="M14.5 15h-1.6c-.2 0-.3-.2-.3-.3 0-.2.2-.3.3-.3h1.6c.2 0 .3.2.3.3 0 .1-.1.3-.3.3z"/><path class="st0" d="M14.9 14.5v-1.6c0-.2-.2-.3-.3-.3-.2 0-.3.2-.3.3v1.6c0 .2.2.3.3.3.2.1.3-.1.3-.3zm1.5 2c0 .4-.3.6-.6.6h-5.7c-.4 0-.6-.3-.6-.6 0-.4.3-.6.6-.6h5.7c.3-.1.6.2.6.6z"/><path class="st0" d="M12.8 17l-1.7 1.7c-.2.2-.5.2-.7 0-.2-.2-.2-.5 0-.7l1.7-1.7c.2-.2.5-.2.7 0 .2.1.2.5 0 .7z"/><path class="st0" d="M12.8 16l-1.7-1.7c-.2-.2-.5-.2-.7 0-.2.2-.2.5 0 .7l1.7 1.7c.2.2.5.2.7 0 .2-.2.2-.5 0-.7zm3.6.5c.2.2.2.4 0 .6l-2.7 2.7c-.2.2-.4.2-.6 0-.2-.2-.2-.4 0-.6l2.7-2.7c.2-.2.5-.2.6 0z"/><path class="st0" d="M15 18.4V20c0 .2-.2.3-.3.3-.2 0-.3-.2-.3-.3v-1.6c0-.2.2-.3.3-.3.1-.1.3.1.3.3z"/><path class="st0" d="M14.5 17.9h-1.6c-.2 0-.3.2-.3.3 0 .2.2.3.3.3h1.6c.2 0 .3-.2.3-.3.1-.1-.1-.3-.3-.3zm2-1.5c.4 0 .6.3.6.6v5.7c0 .4-.3.6-.6.6-.4 0-.6-.3-.6-.6V17c-.1-.3.2-.6.6-.6z"/><path class="st0" d="M17 20l1.7 1.7c.2.2.2.5 0 .7-.2.2-.5.2-.7 0l-1.7-1.7c-.2-.2-.2-.5 0-.7.1-.2.5-.2.7 0z"/><path class="st0" d="M16 20l-1.7 1.7c-.2.2-.2.5 0 .7.2.2.5.2.7 0l1.7-1.7c.2-.2.2-.5 0-.7-.2-.2-.5-.2-.7 0zm.5-3.6c.2-.2.4-.2.6 0l2.7 2.7c.2.2.2.4 0 .6-.2.2-.4.2-.6 0L16.5 17c-.2-.1-.2-.4 0-.6z"/><path class="st0" d="M18.4 17.9H20c.2 0 .3.2.3.3 0 .2-.2.3-.3.3h-1.6c-.2 0-.3-.2-.3-.3-.1-.2.1-.3.3-.3z"/><path class="st0" d="M17.9 18.3v1.6c0 .2.2.3.3.3.2 0 .3-.2.3-.3v-1.6c0-.2-.2-.3-.3-.3-.1 0-.3.1-.3.3zm-1.5-1.9c0-.4.3-.6.6-.6h5.7c.4 0 .6.3.6.6 0 .4-.3.6-.6.6H17c-.3 0-.6-.3-.6-.6z"/><path class="st0" d="M20 15.9l1.7-1.7c.2-.2.5-.2.7 0 .2.2.2.5 0 .7l-1.7 1.7c-.2.2-.5.2-.7 0-.2-.2-.2-.5 0-.7z"/><path class="st0" d="M20 16.9l1.7 1.7c.2.2.5.2.7 0 .2-.2.2-.5 0-.7l-1.7-1.7c-.2-.2-.5-.2-.7 0-.2.1-.2.5 0 .7zm-3.6-.5c-.2-.2-.2-.4 0-.6l2.7-2.7c.2-.2.4-.2.6 0 .2.2.2.4 0 .6L17 16.4c-.1.1-.4.1-.6 0z"/><path class="st0" d="M17.9 14.5v-1.6c0-.2.2-.3.3-.3.2 0 .3.2.3.3v1.6c0 .2-.2.3-.3.3-.2 0-.3-.1-.3-.3z"/><path class="st0" d="M18.3 14.9h1.6c.2 0 .3-.2.3-.3 0-.2-.2-.3-.3-.3h-1.6c-.2 0-.3.2-.3.3 0 .2.1.3.3.3z"/></svg>