<svg id="Calque_1" xmlns="http://www.w3.org/2000/svg" viewBox="0 0 32.8 32.8"><style>.st0{fill:#fff;stroke:#6a1b9a;stroke-width:.1;stroke-miterlimit:10}</style><path class="st0" d="M19.2 15.5c-.2-1.5-1.3-2.7-2.7-2.7-1.4 0-2.6 1.2-2.7 2.7-1.2 0-2.2 1-2.2 2.2s1 2.2 2.2 2.2h5.3c1.2 0 2.2-1 2.2-2.2s-.9-2.2-2.1-2.2z"/><path class="st0" d="M21.6 15.2h-9.2c-.1 0-.2-.1-.2-.2s.1-.2.2-.2h9.2c.1 0 .2.1.2.2.1.1-.1.2-.2.2zm-3 1H9.4c-.1 0-.2-.1-.2-.2s.1-.2.2-.2h9.2c.1 0 .2.1.2.2s-.1.2-.2.2zm4 1h-9.2c-.1 0-.2-.1-.2-.2s.1-.2.2-.2h9.2c.1 0 .2.1.2.2s-.1.2-.2.2zm-4 1H9.4c-.1 0-.2-.1-.2-.2s.1-.2.2-.2h9.2c.1 0 .2.1.2.2s-.1.2-.2.2zm5 1h-9.2c-.1 0-.2-.1-.2-.2s.1-.2.2-.2h9.2c.1 0 .2.1.2.2s-.1.2-.2.2z"/></svg>