<svg id="Calque_1" xmlns="http://www.w3.org/2000/svg" viewBox="0 0 32.8 32.8"><style>.st0{fill:#fff}.st1{fill:#9c27b0}</style><circle class="st0" cx="16.4" cy="16.4" r="16.2"/><path class="st1" d="M22.9 17.8H8c-.2 0-.4-.2-.4-.4s.2-.4.4-.4h14.9c.2 0 .4.2.4.4.1.2-.1.4-.4.4zm-4.8 1.8h-11c-.2 0-.4-.2-.4-.4s.2-.4.4-.4h11c.2 0 .4.2.4.4s-.2.4-.4.4z"/><path class="st1" d="M18 18.7c1.3 0 2.3 1.1 2.3 2.3 0 1.3-1.1 2.3-2.3 2.3v-.9c.8 0 1.4-.6 1.4-1.4s-.6-1.4-1.4-1.4v-.9z"/><path class="st1" d="M18 22.4c.2 0 .4.2.4.5 0 .2-.2.4-.4.4s-.4-.2-.4-.4c0-.3.2-.5.4-.5zm.1-7.4h-11c-.2 0-.4.2-.4.5 0 .2.2.5.4.5h11c.2 0 .4-.2.4-.5s-.2-.5-.4-.5z"/><path class="st1" d="M18.1 15c.8 0 1.4-.6 1.4-1.4s-.6-1.4-1.4-1.4v-.9c1.3 0 2.3 1.1 2.3 2.3 0 1.3-1.1 2.3-2.3 2.3V15z"/><path class="st1" d="M18.1 12.2c.2 0 .4-.2.4-.4s-.2-.4-.4-.4-.4.2-.4.4.2.4.4.4zm-11 7.4c-1.3 0-2.3-1.1-2.3-2.3C4.8 16 5.9 15 7.1 15v.9c-.8 0-1.4.6-1.4 1.4s.6 1.4 1.4 1.4v.9zM22.8 17c.8 0 1.5-.6 1.5-1.2 0-.7-.6-1.2-1.4-1.2v-.8c1.3 0 2.3.9 2.3 2.1S24.1 18 22.9 18l-.1-1z"/><path class="st1" d="M22.9 14.5c.2 0 .4-.2.4-.4s-.2-.4-.4-.4-.4.2-.4.4.2.4.4.4z"/></svg>